<svg xmlns="http://www.w3.org/2000/svg" width="1920" height="908" style="cursor: move;"><g transform="translate(285.4057727937487,83.57933499124164) scale(0.7770072687840496)"><path class="link" marker-end="" d="M596,-47, 999,21.5" style="stroke-width: 0.83; stroke-opacity: 0.57; stroke: rgb(80, 80, 80); opacity: 1;"></path><path class="link" marker-end="" d="M596,-47, 999,80.5" style="stroke-width: 0.83; stroke-opacity: 0.57; stroke: rgb(80, 80, 80); opacity: 1;"></path><path class="link" marker-end="" d="M596,-47, 999,139.5" style="stroke-width: 0.83; stroke-opacity: 0.57; stroke: rgb(80, 80, 80); opacity: 1;"></path><path class="link" marker-end="" d="M596,-47, 999,198.5" style="stroke-width: 0.83; stroke-opacity: 0.57; stroke: rgb(80, 80, 80); opacity: 1;"></path><path class="link" marker-end="" d="M596,-47, 999,257.5" style="stroke-width: 0.83; stroke-opacity: 0.57; stroke: rgb(80, 80, 80); opacity: 1;"></path><path class="link" marker-end="" d="M596,-47, 999,316.5" style="stroke-width: 0.83; stroke-opacity: 0.57; stroke: rgb(80, 80, 80); opacity: 1;"></path><path class="link" marker-end="" d="M596,-47, 999,375.5" style="stroke-width: 0.83; stroke-opacity: 0.57; stroke: rgb(80, 80, 80); opacity: 1;"></path><path class="link" marker-end="" d="M596,-47, 999,434.5" style="stroke-width: 0.83; stroke-opacity: 0.57; stroke: rgb(80, 80, 80); opacity: 1;"></path><path class="link" marker-end="" d="M596,-47, 999,493.5" style="stroke-width: 0.83; stroke-opacity: 0.57; stroke: rgb(80, 80, 80); opacity: 1;"></path><path class="link" marker-end="" d="M596,-47, 999,552.5" style="stroke-width: 0.83; stroke-opacity: 0.57; stroke: rgb(80, 80, 80); opacity: 1;"></path><path class="link" marker-end="" d="M596,-47, 999,611.5" style="stroke-width: 0.83; stroke-opacity: 0.57; stroke: rgb(80, 80, 80); opacity: 1;"></path><path class="link" marker-end="" d="M596,-47, 999,670.5" style="stroke-width: 0.83; stroke-opacity: 0.57; stroke: rgb(80, 80, 80); opacity: 1;"></path><path class="link" marker-end="" d="M596,60, 999,21.5" style="stroke-width: 0.83; stroke-opacity: 0.57; stroke: rgb(80, 80, 80); opacity: 1;"></path><path class="link" marker-end="" d="M596,60, 999,80.5" style="stroke-width: 0.83; stroke-opacity: 0.57; stroke: rgb(80, 80, 80); opacity: 1;"></path><path class="link" marker-end="" d="M596,60, 999,139.5" style="stroke-width: 0.83; stroke-opacity: 0.57; stroke: rgb(80, 80, 80); opacity: 1;"></path><path class="link" marker-end="" d="M596,60, 999,198.5" style="stroke-width: 0.83; stroke-opacity: 0.57; stroke: rgb(80, 80, 80); opacity: 1;"></path><path class="link" marker-end="" d="M596,60, 999,257.5" style="stroke-width: 0.83; stroke-opacity: 0.57; stroke: rgb(80, 80, 80); opacity: 1;"></path><path class="link" marker-end="" d="M596,60, 999,316.5" style="stroke-width: 0.83; stroke-opacity: 0.57; stroke: rgb(80, 80, 80); opacity: 1;"></path><path class="link" marker-end="" d="M596,60, 999,375.5" style="stroke-width: 0.83; stroke-opacity: 0.57; stroke: rgb(80, 80, 80); opacity: 1;"></path><path class="link" marker-end="" d="M596,60, 999,434.5" style="stroke-width: 0.83; stroke-opacity: 0.57; stroke: rgb(80, 80, 80); opacity: 1;"></path><path class="link" marker-end="" d="M596,60, 999,493.5" style="stroke-width: 0.83; stroke-opacity: 0.57; stroke: rgb(80, 80, 80); opacity: 1;"></path><path class="link" marker-end="" d="M596,60, 999,552.5" style="stroke-width: 0.83; stroke-opacity: 0.57; stroke: rgb(80, 80, 80); opacity: 1;"></path><path class="link" marker-end="" d="M596,60, 999,611.5" style="stroke-width: 0.83; stroke-opacity: 0.57; stroke: rgb(80, 80, 80); opacity: 1;"></path><path class="link" marker-end="" d="M596,60, 999,670.5" style="stroke-width: 0.83; stroke-opacity: 0.57; stroke: rgb(80, 80, 80); opacity: 1;"></path><path class="link" marker-end="" d="M596,167, 999,21.5" style="stroke-width: 0.83; stroke-opacity: 0.57; stroke: rgb(80, 80, 80); opacity: 1;"></path><path class="link" marker-end="" d="M596,167, 999,80.5" style="stroke-width: 0.83; stroke-opacity: 0.57; stroke: rgb(80, 80, 80); opacity: 1;"></path><path class="link" marker-end="" d="M596,167, 999,139.5" style="stroke-width: 0.83; stroke-opacity: 0.57; stroke: rgb(80, 80, 80); opacity: 1;"></path><path class="link" marker-end="" d="M596,167, 999,198.5" style="stroke-width: 0.83; stroke-opacity: 0.57; stroke: rgb(80, 80, 80); opacity: 1;"></path><path class="link" marker-end="" d="M596,167, 999,257.5" style="stroke-width: 0.83; stroke-opacity: 0.57; stroke: rgb(80, 80, 80); opacity: 1;"></path><path class="link" marker-end="" d="M596,167, 999,316.5" style="stroke-width: 0.83; stroke-opacity: 0.57; stroke: rgb(80, 80, 80); opacity: 1;"></path><path class="link" marker-end="" d="M596,167, 999,375.5" style="stroke-width: 0.83; stroke-opacity: 0.57; stroke: rgb(80, 80, 80); opacity: 1;"></path><path class="link" marker-end="" d="M596,167, 999,434.5" style="stroke-width: 0.83; stroke-opacity: 0.57; stroke: rgb(80, 80, 80); opacity: 1;"></path><path class="link" marker-end="" d="M596,167, 999,493.5" style="stroke-width: 0.83; stroke-opacity: 0.57; stroke: rgb(80, 80, 80); opacity: 1;"></path><path class="link" marker-end="" d="M596,167, 999,552.5" style="stroke-width: 0.83; stroke-opacity: 0.57; stroke: rgb(80, 80, 80); opacity: 1;"></path><path class="link" marker-end="" d="M596,167, 999,611.5" style="stroke-width: 0.83; stroke-opacity: 0.57; stroke: rgb(80, 80, 80); opacity: 1;"></path><path class="link" marker-end="" d="M596,167, 999,670.5" style="stroke-width: 0.83; stroke-opacity: 0.57; stroke: rgb(80, 80, 80); opacity: 1;"></path><path class="link" marker-end="" d="M596,274, 999,21.5" style="stroke-width: 0.83; stroke-opacity: 0.57; stroke: rgb(80, 80, 80); opacity: 1;"></path><path class="link" marker-end="" d="M596,274, 999,80.5" style="stroke-width: 0.83; stroke-opacity: 0.57; stroke: rgb(80, 80, 80); opacity: 1;"></path><path class="link" marker-end="" d="M596,274, 999,139.5" style="stroke-width: 0.83; stroke-opacity: 0.57; stroke: rgb(80, 80, 80); opacity: 1;"></path><path class="link" marker-end="" d="M596,274, 999,198.5" style="stroke-width: 0.83; stroke-opacity: 0.57; stroke: rgb(80, 80, 80); opacity: 1;"></path><path class="link" marker-end="" d="M596,274, 999,257.5" style="stroke-width: 0.83; stroke-opacity: 0.57; stroke: rgb(80, 80, 80); opacity: 1;"></path><path class="link" marker-end="" d="M596,274, 999,316.5" style="stroke-width: 0.83; stroke-opacity: 0.57; stroke: rgb(80, 80, 80); opacity: 1;"></path><path class="link" marker-end="" d="M596,274, 999,375.5" style="stroke-width: 0.83; stroke-opacity: 0.57; stroke: rgb(80, 80, 80); opacity: 1;"></path><path class="link" marker-end="" d="M596,274, 999,434.5" style="stroke-width: 0.83; stroke-opacity: 0.57; stroke: rgb(80, 80, 80); opacity: 1;"></path><path class="link" marker-end="" d="M596,274, 999,493.5" style="stroke-width: 0.83; stroke-opacity: 0.57; stroke: rgb(80, 80, 80); opacity: 1;"></path><path class="link" marker-end="" d="M596,274, 999,552.5" style="stroke-width: 0.83; stroke-opacity: 0.57; stroke: rgb(80, 80, 80); opacity: 1;"></path><path class="link" marker-end="" d="M596,274, 999,611.5" style="stroke-width: 0.83; stroke-opacity: 0.57; stroke: rgb(80, 80, 80); opacity: 1;"></path><path class="link" marker-end="" d="M596,274, 999,670.5" style="stroke-width: 0.83; stroke-opacity: 0.57; stroke: rgb(80, 80, 80); opacity: 1;"></path><path class="link" marker-end="" d="M596,381, 999,21.5" style="stroke-width: 0.83; stroke-opacity: 0.57; stroke: rgb(80, 80, 80); opacity: 1;"></path><path class="link" marker-end="" d="M596,381, 999,80.5" style="stroke-width: 0.83; stroke-opacity: 0.57; stroke: rgb(80, 80, 80); opacity: 1;"></path><path class="link" marker-end="" d="M596,381, 999,139.5" style="stroke-width: 0.83; stroke-opacity: 0.57; stroke: rgb(80, 80, 80); opacity: 1;"></path><path class="link" marker-end="" d="M596,381, 999,198.5" style="stroke-width: 0.83; stroke-opacity: 0.57; stroke: rgb(80, 80, 80); opacity: 1;"></path><path class="link" marker-end="" d="M596,381, 999,257.5" style="stroke-width: 0.83; stroke-opacity: 0.57; stroke: rgb(80, 80, 80); opacity: 1;"></path><path class="link" marker-end="" d="M596,381, 999,316.5" style="stroke-width: 0.83; stroke-opacity: 0.57; stroke: rgb(80, 80, 80); opacity: 1;"></path><path class="link" marker-end="" d="M596,381, 999,375.5" style="stroke-width: 0.83; stroke-opacity: 0.57; stroke: rgb(80, 80, 80); opacity: 1;"></path><path class="link" marker-end="" d="M596,381, 999,434.5" style="stroke-width: 0.83; stroke-opacity: 0.57; stroke: rgb(80, 80, 80); opacity: 1;"></path><path class="link" marker-end="" d="M596,381, 999,493.5" style="stroke-width: 0.83; stroke-opacity: 0.57; stroke: rgb(80, 80, 80); opacity: 1;"></path><path class="link" marker-end="" d="M596,381, 999,552.5" style="stroke-width: 0.83; stroke-opacity: 0.57; stroke: rgb(80, 80, 80); opacity: 1;"></path><path class="link" marker-end="" d="M596,381, 999,611.5" style="stroke-width: 0.83; stroke-opacity: 0.57; stroke: rgb(80, 80, 80); opacity: 1;"></path><path class="link" marker-end="" d="M596,381, 999,670.5" style="stroke-width: 0.83; stroke-opacity: 0.57; stroke: rgb(80, 80, 80); opacity: 1;"></path><path class="link" marker-end="" d="M596,488, 999,21.5" style="stroke-width: 0.83; stroke-opacity: 0.57; stroke: rgb(80, 80, 80); opacity: 1;"></path><path class="link" marker-end="" d="M596,488, 999,80.5" style="stroke-width: 0.83; stroke-opacity: 0.57; stroke: rgb(80, 80, 80); opacity: 1;"></path><path class="link" marker-end="" d="M596,488, 999,139.5" style="stroke-width: 0.83; stroke-opacity: 0.57; stroke: rgb(80, 80, 80); opacity: 1;"></path><path class="link" marker-end="" d="M596,488, 999,198.5" style="stroke-width: 0.83; stroke-opacity: 0.57; stroke: rgb(80, 80, 80); opacity: 1;"></path><path class="link" marker-end="" d="M596,488, 999,257.5" style="stroke-width: 0.83; stroke-opacity: 0.57; stroke: rgb(80, 80, 80); opacity: 1;"></path><path class="link" marker-end="" d="M596,488, 999,316.5" style="stroke-width: 0.83; stroke-opacity: 0.57; stroke: rgb(80, 80, 80); opacity: 1;"></path><path class="link" marker-end="" d="M596,488, 999,375.5" style="stroke-width: 0.83; stroke-opacity: 0.57; stroke: rgb(80, 80, 80); opacity: 1;"></path><path class="link" marker-end="" d="M596,488, 999,434.5" style="stroke-width: 0.83; stroke-opacity: 0.57; stroke: rgb(80, 80, 80); opacity: 1;"></path><path class="link" marker-end="" d="M596,488, 999,493.5" style="stroke-width: 0.83; stroke-opacity: 0.57; stroke: rgb(80, 80, 80); opacity: 1;"></path><path class="link" marker-end="" d="M596,488, 999,552.5" style="stroke-width: 0.83; stroke-opacity: 0.57; stroke: rgb(80, 80, 80); opacity: 1;"></path><path class="link" marker-end="" d="M596,488, 999,611.5" style="stroke-width: 0.83; stroke-opacity: 0.57; stroke: rgb(80, 80, 80); opacity: 1;"></path><path class="link" marker-end="" d="M596,488, 999,670.5" style="stroke-width: 0.83; stroke-opacity: 0.57; stroke: rgb(80, 80, 80); opacity: 1;"></path><path class="link" marker-end="" d="M999,21.5, 1402,316.5" style="stroke-width: 0.83; stroke-opacity: 0.57; stroke: rgb(80, 80, 80); opacity: 1;"></path><path class="link" marker-end="" d="M999,21.5, 1402,375.5" style="stroke-width: 0.83; stroke-opacity: 0.57; stroke: rgb(80, 80, 80); opacity: 1;"></path><path class="link" marker-end="" d="M999,21.5, 1402,434.5" style="stroke-width: 0.83; stroke-opacity: 0.57; stroke: rgb(80, 80, 80); opacity: 1;"></path><path class="link" marker-end="" d="M999,21.5, 1402,493.5" style="stroke-width: 0.83; stroke-opacity: 0.57; stroke: rgb(80, 80, 80); opacity: 1;"></path><path class="link" marker-end="" d="M999,21.5, 1402,552.5" style="stroke-width: 0.83; stroke-opacity: 0.57; stroke: rgb(80, 80, 80); opacity: 1;"></path><path class="link" marker-end="" d="M999,80.5, 1402,316.5" style="stroke-width: 0.83; stroke-opacity: 0.57; stroke: rgb(80, 80, 80); opacity: 1;"></path><path class="link" marker-end="" d="M999,80.5, 1402,375.5" style="stroke-width: 0.83; stroke-opacity: 0.57; stroke: rgb(80, 80, 80); opacity: 1;"></path><path class="link" marker-end="" d="M999,80.5, 1402,434.5" style="stroke-width: 0.83; stroke-opacity: 0.57; stroke: rgb(80, 80, 80); opacity: 1;"></path><path class="link" marker-end="" d="M999,80.5, 1402,493.5" style="stroke-width: 0.83; stroke-opacity: 0.57; stroke: rgb(80, 80, 80); opacity: 1;"></path><path class="link" marker-end="" d="M999,80.5, 1402,552.5" style="stroke-width: 0.83; stroke-opacity: 0.57; stroke: rgb(80, 80, 80); opacity: 1;"></path><path class="link" marker-end="" d="M999,139.5, 1402,316.5" style="stroke-width: 0.83; stroke-opacity: 0.57; stroke: rgb(80, 80, 80); opacity: 1;"></path><path class="link" marker-end="" d="M999,139.5, 1402,375.5" style="stroke-width: 0.83; stroke-opacity: 0.57; stroke: rgb(80, 80, 80); opacity: 1;"></path><path class="link" marker-end="" d="M999,139.5, 1402,434.5" style="stroke-width: 0.83; stroke-opacity: 0.57; stroke: rgb(80, 80, 80); opacity: 1;"></path><path class="link" marker-end="" d="M999,139.5, 1402,493.5" style="stroke-width: 0.83; stroke-opacity: 0.57; stroke: rgb(80, 80, 80); opacity: 1;"></path><path class="link" marker-end="" d="M999,139.5, 1402,552.5" style="stroke-width: 0.83; stroke-opacity: 0.57; stroke: rgb(80, 80, 80); opacity: 1;"></path><path class="link" marker-end="" d="M999,198.5, 1402,316.5" style="stroke-width: 0.83; stroke-opacity: 0.57; stroke: rgb(80, 80, 80); opacity: 1;"></path><path class="link" marker-end="" d="M999,198.5, 1402,375.5" style="stroke-width: 0.83; stroke-opacity: 0.57; stroke: rgb(80, 80, 80); opacity: 1;"></path><path class="link" marker-end="" d="M999,198.5, 1402,434.5" style="stroke-width: 0.83; stroke-opacity: 0.57; stroke: rgb(80, 80, 80); opacity: 1;"></path><path class="link" marker-end="" d="M999,198.5, 1402,493.5" style="stroke-width: 0.83; stroke-opacity: 0.57; stroke: rgb(80, 80, 80); opacity: 1;"></path><path class="link" marker-end="" d="M999,198.5, 1402,552.5" style="stroke-width: 0.83; stroke-opacity: 0.57; stroke: rgb(80, 80, 80); opacity: 1;"></path><path class="link" marker-end="" d="M999,257.5, 1402,316.5" style="stroke-width: 0.83; stroke-opacity: 0.57; stroke: rgb(80, 80, 80); opacity: 1;"></path><path class="link" marker-end="" d="M999,257.5, 1402,375.5" style="stroke-width: 0.83; stroke-opacity: 0.57; stroke: rgb(80, 80, 80); opacity: 1;"></path><path class="link" marker-end="" d="M999,257.5, 1402,434.5" style="stroke-width: 0.83; stroke-opacity: 0.57; stroke: rgb(80, 80, 80); opacity: 1;"></path><path class="link" marker-end="" d="M999,257.5, 1402,493.5" style="stroke-width: 0.83; stroke-opacity: 0.57; stroke: rgb(80, 80, 80); opacity: 1;"></path><path class="link" marker-end="" d="M999,257.5, 1402,552.5" style="stroke-width: 0.83; stroke-opacity: 0.57; stroke: rgb(80, 80, 80); opacity: 1;"></path><path class="link" marker-end="" d="M999,316.5, 1402,316.5" style="stroke-width: 0.83; stroke-opacity: 0.57; stroke: rgb(80, 80, 80); opacity: 1;"></path><path class="link" marker-end="" d="M999,316.5, 1402,375.5" style="stroke-width: 0.83; stroke-opacity: 0.57; stroke: rgb(80, 80, 80); opacity: 1;"></path><path class="link" marker-end="" d="M999,316.5, 1402,434.5" style="stroke-width: 0.83; stroke-opacity: 0.57; stroke: rgb(80, 80, 80); opacity: 1;"></path><path class="link" marker-end="" d="M999,316.5, 1402,493.5" style="stroke-width: 0.83; stroke-opacity: 0.57; stroke: rgb(80, 80, 80); opacity: 1;"></path><path class="link" marker-end="" d="M999,316.5, 1402,552.5" style="stroke-width: 0.83; stroke-opacity: 0.57; stroke: rgb(80, 80, 80); opacity: 1;"></path><path class="link" marker-end="" d="M999,375.5, 1402,316.5" style="stroke-width: 0.83; stroke-opacity: 0.57; stroke: rgb(80, 80, 80); opacity: 1;"></path><path class="link" marker-end="" d="M999,375.5, 1402,375.5" style="stroke-width: 0.83; stroke-opacity: 0.57; stroke: rgb(80, 80, 80); opacity: 1;"></path><path class="link" marker-end="" d="M999,375.5, 1402,434.5" style="stroke-width: 0.83; stroke-opacity: 0.57; stroke: rgb(80, 80, 80); opacity: 1;"></path><path class="link" marker-end="" d="M999,375.5, 1402,493.5" style="stroke-width: 0.83; stroke-opacity: 0.57; stroke: rgb(80, 80, 80); opacity: 1;"></path><path class="link" marker-end="" d="M999,375.5, 1402,552.5" style="stroke-width: 0.83; stroke-opacity: 0.57; stroke: rgb(80, 80, 80); opacity: 1;"></path><path class="link" marker-end="" d="M999,434.5, 1402,316.5" style="stroke-width: 0.83; stroke-opacity: 0.57; stroke: rgb(80, 80, 80); opacity: 1;"></path><path class="link" marker-end="" d="M999,434.5, 1402,375.5" style="stroke-width: 0.83; stroke-opacity: 0.57; stroke: rgb(80, 80, 80); opacity: 1;"></path><path class="link" marker-end="" d="M999,434.5, 1402,434.5" style="stroke-width: 0.83; stroke-opacity: 0.57; stroke: rgb(80, 80, 80); opacity: 1;"></path><path class="link" marker-end="" d="M999,434.5, 1402,493.5" style="stroke-width: 0.83; stroke-opacity: 0.57; stroke: rgb(80, 80, 80); opacity: 1;"></path><path class="link" marker-end="" d="M999,434.5, 1402,552.5" style="stroke-width: 0.83; stroke-opacity: 0.57; stroke: rgb(80, 80, 80); opacity: 1;"></path><path class="link" marker-end="" d="M999,493.5, 1402,316.5" style="stroke-width: 0.83; stroke-opacity: 0.57; stroke: rgb(80, 80, 80); opacity: 1;"></path><path class="link" marker-end="" d="M999,493.5, 1402,375.5" style="stroke-width: 0.83; stroke-opacity: 0.57; stroke: rgb(80, 80, 80); opacity: 1;"></path><path class="link" marker-end="" d="M999,493.5, 1402,434.5" style="stroke-width: 0.83; stroke-opacity: 0.57; stroke: rgb(80, 80, 80); opacity: 1;"></path><path class="link" marker-end="" d="M999,493.5, 1402,493.5" style="stroke-width: 0.83; stroke-opacity: 0.57; stroke: rgb(80, 80, 80); opacity: 1;"></path><path class="link" marker-end="" d="M999,493.5, 1402,552.5" style="stroke-width: 0.83; stroke-opacity: 0.57; stroke: rgb(80, 80, 80); opacity: 1;"></path><path class="link" marker-end="" d="M999,552.5, 1402,316.5" style="stroke-width: 0.83; stroke-opacity: 0.57; stroke: rgb(80, 80, 80); opacity: 1;"></path><path class="link" marker-end="" d="M999,552.5, 1402,375.5" style="stroke-width: 0.83; stroke-opacity: 0.57; stroke: rgb(80, 80, 80); opacity: 1;"></path><path class="link" marker-end="" d="M999,552.5, 1402,434.5" style="stroke-width: 0.83; stroke-opacity: 0.57; stroke: rgb(80, 80, 80); opacity: 1;"></path><path class="link" marker-end="" d="M999,552.5, 1402,493.5" style="stroke-width: 0.83; stroke-opacity: 0.57; stroke: rgb(80, 80, 80); opacity: 1;"></path><path class="link" marker-end="" d="M999,552.5, 1402,552.5" style="stroke-width: 0.83; stroke-opacity: 0.57; stroke: rgb(80, 80, 80); opacity: 1;"></path><path class="link" marker-end="" d="M999,611.5, 1402,316.5" style="stroke-width: 0.83; stroke-opacity: 0.57; stroke: rgb(80, 80, 80); opacity: 1;"></path><path class="link" marker-end="" d="M999,611.5, 1402,375.5" style="stroke-width: 0.83; stroke-opacity: 0.57; stroke: rgb(80, 80, 80); opacity: 1;"></path><path class="link" marker-end="" d="M999,611.5, 1402,434.5" style="stroke-width: 0.83; stroke-opacity: 0.57; stroke: rgb(80, 80, 80); opacity: 1;"></path><path class="link" marker-end="" d="M999,611.5, 1402,493.5" style="stroke-width: 0.83; stroke-opacity: 0.57; stroke: rgb(80, 80, 80); opacity: 1;"></path><path class="link" marker-end="" d="M999,611.5, 1402,552.5" style="stroke-width: 0.83; stroke-opacity: 0.57; stroke: rgb(80, 80, 80); opacity: 1;"></path><path class="link" marker-end="" d="M999,670.5, 1402,316.5" style="stroke-width: 0.83; stroke-opacity: 0.57; stroke: rgb(80, 80, 80); opacity: 1;"></path><path class="link" marker-end="" d="M999,670.5, 1402,375.5" style="stroke-width: 0.83; stroke-opacity: 0.57; stroke: rgb(80, 80, 80); opacity: 1;"></path><path class="link" marker-end="" d="M999,670.5, 1402,434.5" style="stroke-width: 0.83; stroke-opacity: 0.57; stroke: rgb(80, 80, 80); opacity: 1;"></path><path class="link" marker-end="" d="M999,670.5, 1402,493.5" style="stroke-width: 0.83; stroke-opacity: 0.57; stroke: rgb(80, 80, 80); opacity: 1;"></path><path class="link" marker-end="" d="M999,670.5, 1402,552.5" style="stroke-width: 0.83; stroke-opacity: 0.57; stroke: rgb(80, 80, 80); opacity: 1;"></path><path class="link" marker-end="" d="M596,595, 999,21.5" style="stroke-width: 0.83; stroke-opacity: 0.57; stroke: rgb(80, 80, 80);"></path><path class="link" marker-end="" d="M596,595, 999,80.5" style="stroke-width: 0.83; stroke-opacity: 0.57; stroke: rgb(80, 80, 80);"></path><path class="link" marker-end="" d="M596,595, 999,139.5" style="stroke-width: 0.83; stroke-opacity: 0.57; stroke: rgb(80, 80, 80);"></path><path class="link" marker-end="" d="M596,595, 999,198.5" style="stroke-width: 0.83; stroke-opacity: 0.57; stroke: rgb(80, 80, 80);"></path><path class="link" marker-end="" d="M596,595, 999,257.5" style="stroke-width: 0.83; stroke-opacity: 0.57; stroke: rgb(80, 80, 80);"></path><path class="link" marker-end="" d="M596,595, 999,316.5" style="stroke-width: 0.83; stroke-opacity: 0.57; stroke: rgb(80, 80, 80);"></path><path class="link" marker-end="" d="M596,595, 999,375.5" style="stroke-width: 0.83; stroke-opacity: 0.57; stroke: rgb(80, 80, 80);"></path><path class="link" marker-end="" d="M596,595, 999,434.5" style="stroke-width: 0.83; stroke-opacity: 0.57; stroke: rgb(80, 80, 80);"></path><path class="link" marker-end="" d="M596,595, 999,493.5" style="stroke-width: 0.83; stroke-opacity: 0.57; stroke: rgb(80, 80, 80);"></path><path class="link" marker-end="" d="M596,595, 999,552.5" style="stroke-width: 0.83; stroke-opacity: 0.57; stroke: rgb(80, 80, 80);"></path><path class="link" marker-end="" d="M596,595, 999,611.5" style="stroke-width: 0.83; stroke-opacity: 0.57; stroke: rgb(80, 80, 80);"></path><path class="link" marker-end="" d="M596,595, 999,670.5" style="stroke-width: 0.83; stroke-opacity: 0.57; stroke: rgb(80, 80, 80);"></path><path class="link" marker-end="" d="M596,702, 999,21.5" style="stroke-width: 0.83; stroke-opacity: 0.57; stroke: rgb(80, 80, 80);"></path><path class="link" marker-end="" d="M596,702, 999,80.5" style="stroke-width: 0.83; stroke-opacity: 0.57; stroke: rgb(80, 80, 80);"></path><path class="link" marker-end="" d="M596,702, 999,139.5" style="stroke-width: 0.83; stroke-opacity: 0.57; stroke: rgb(80, 80, 80);"></path><path class="link" marker-end="" d="M596,702, 999,198.5" style="stroke-width: 0.83; stroke-opacity: 0.57; stroke: rgb(80, 80, 80);"></path><path class="link" marker-end="" d="M596,702, 999,257.5" style="stroke-width: 0.83; stroke-opacity: 0.57; stroke: rgb(80, 80, 80);"></path><path class="link" marker-end="" d="M596,702, 999,316.5" style="stroke-width: 0.83; stroke-opacity: 0.57; stroke: rgb(80, 80, 80);"></path><path class="link" marker-end="" d="M596,702, 999,375.5" style="stroke-width: 0.83; stroke-opacity: 0.57; stroke: rgb(80, 80, 80);"></path><path class="link" marker-end="" d="M596,702, 999,434.5" style="stroke-width: 0.83; stroke-opacity: 0.57; stroke: rgb(80, 80, 80);"></path><path class="link" marker-end="" d="M596,702, 999,493.5" style="stroke-width: 0.83; stroke-opacity: 0.57; stroke: rgb(80, 80, 80);"></path><path class="link" marker-end="" d="M596,702, 999,552.5" style="stroke-width: 0.83; stroke-opacity: 0.57; stroke: rgb(80, 80, 80);"></path><path class="link" marker-end="" d="M596,702, 999,611.5" style="stroke-width: 0.83; stroke-opacity: 0.57; stroke: rgb(80, 80, 80);"></path><path class="link" marker-end="" d="M596,702, 999,670.5" style="stroke-width: 0.83; stroke-opacity: 0.57; stroke: rgb(80, 80, 80);"></path><path class="link" marker-end="" d="M596,809, 999,21.5" style="stroke-width: 0.83; stroke-opacity: 0.57; stroke: rgb(80, 80, 80);"></path><path class="link" marker-end="" d="M596,809, 999,80.5" style="stroke-width: 0.83; stroke-opacity: 0.57; stroke: rgb(80, 80, 80);"></path><path class="link" marker-end="" d="M596,809, 999,139.5" style="stroke-width: 0.83; stroke-opacity: 0.57; stroke: rgb(80, 80, 80);"></path><path class="link" marker-end="" d="M596,809, 999,198.5" style="stroke-width: 0.83; stroke-opacity: 0.57; stroke: rgb(80, 80, 80);"></path><path class="link" marker-end="" d="M596,809, 999,257.5" style="stroke-width: 0.83; stroke-opacity: 0.57; stroke: rgb(80, 80, 80);"></path><path class="link" marker-end="" d="M596,809, 999,316.5" style="stroke-width: 0.83; stroke-opacity: 0.57; stroke: rgb(80, 80, 80);"></path><path class="link" marker-end="" d="M596,809, 999,375.5" style="stroke-width: 0.83; stroke-opacity: 0.57; stroke: rgb(80, 80, 80);"></path><path class="link" marker-end="" d="M596,809, 999,434.5" style="stroke-width: 0.83; stroke-opacity: 0.57; stroke: rgb(80, 80, 80);"></path><path class="link" marker-end="" d="M596,809, 999,493.5" style="stroke-width: 0.83; stroke-opacity: 0.57; stroke: rgb(80, 80, 80);"></path><path class="link" marker-end="" d="M596,809, 999,552.5" style="stroke-width: 0.83; stroke-opacity: 0.57; stroke: rgb(80, 80, 80);"></path><path class="link" marker-end="" d="M596,809, 999,611.5" style="stroke-width: 0.83; stroke-opacity: 0.57; stroke: rgb(80, 80, 80);"></path><path class="link" marker-end="" d="M596,809, 999,670.5" style="stroke-width: 0.83; stroke-opacity: 0.57; stroke: rgb(80, 80, 80);"></path><path class="link" marker-end="" d="M596,916, 999,21.5" style="stroke-width: 0.83; stroke-opacity: 0.57; stroke: rgb(80, 80, 80);"></path><path class="link" marker-end="" d="M596,916, 999,80.5" style="stroke-width: 0.83; stroke-opacity: 0.57; stroke: rgb(80, 80, 80);"></path><path class="link" marker-end="" d="M596,916, 999,139.5" style="stroke-width: 0.83; stroke-opacity: 0.57; stroke: rgb(80, 80, 80);"></path><path class="link" marker-end="" d="M596,916, 999,198.5" style="stroke-width: 0.83; stroke-opacity: 0.57; stroke: rgb(80, 80, 80);"></path><path class="link" marker-end="" d="M596,916, 999,257.5" style="stroke-width: 0.83; stroke-opacity: 0.57; stroke: rgb(80, 80, 80);"></path><path class="link" marker-end="" d="M596,916, 999,316.5" style="stroke-width: 0.83; stroke-opacity: 0.57; stroke: rgb(80, 80, 80);"></path><path class="link" marker-end="" d="M596,916, 999,375.5" style="stroke-width: 0.83; stroke-opacity: 0.57; stroke: rgb(80, 80, 80);"></path><path class="link" marker-end="" d="M596,916, 999,434.5" style="stroke-width: 0.83; stroke-opacity: 0.57; stroke: rgb(80, 80, 80);"></path><path class="link" marker-end="" d="M596,916, 999,493.5" style="stroke-width: 0.83; stroke-opacity: 0.57; stroke: rgb(80, 80, 80);"></path><path class="link" marker-end="" d="M596,916, 999,552.5" style="stroke-width: 0.83; stroke-opacity: 0.57; stroke: rgb(80, 80, 80);"></path><path class="link" marker-end="" d="M596,916, 999,611.5" style="stroke-width: 0.83; stroke-opacity: 0.57; stroke: rgb(80, 80, 80);"></path><path class="link" marker-end="" d="M596,916, 999,670.5" style="stroke-width: 0.83; stroke-opacity: 0.57; stroke: rgb(80, 80, 80);"></path><path class="link" marker-end="" d="M596,-47, 999,729.5" style="stroke-width: 0.83; stroke-opacity: 0.57; stroke: rgb(80, 80, 80);"></path><path class="link" marker-end="" d="M596,-47, 999,788.5" style="stroke-width: 0.83; stroke-opacity: 0.57; stroke: rgb(80, 80, 80);"></path><path class="link" marker-end="" d="M596,-47, 999,847.5" style="stroke-width: 0.83; stroke-opacity: 0.57; stroke: rgb(80, 80, 80);"></path><path class="link" marker-end="" d="M596,60, 999,729.5" style="stroke-width: 0.83; stroke-opacity: 0.57; stroke: rgb(80, 80, 80);"></path><path class="link" marker-end="" d="M596,60, 999,788.5" style="stroke-width: 0.83; stroke-opacity: 0.57; stroke: rgb(80, 80, 80);"></path><path class="link" marker-end="" d="M596,60, 999,847.5" style="stroke-width: 0.83; stroke-opacity: 0.57; stroke: rgb(80, 80, 80);"></path><path class="link" marker-end="" d="M596,167, 999,729.5" style="stroke-width: 0.83; stroke-opacity: 0.57; stroke: rgb(80, 80, 80);"></path><path class="link" marker-end="" d="M596,167, 999,788.5" style="stroke-width: 0.83; stroke-opacity: 0.57; stroke: rgb(80, 80, 80);"></path><path class="link" marker-end="" d="M596,167, 999,847.5" style="stroke-width: 0.83; stroke-opacity: 0.57; stroke: rgb(80, 80, 80);"></path><path class="link" marker-end="" d="M596,274, 999,729.5" style="stroke-width: 0.83; stroke-opacity: 0.57; stroke: rgb(80, 80, 80);"></path><path class="link" marker-end="" d="M596,274, 999,788.5" style="stroke-width: 0.83; stroke-opacity: 0.57; stroke: rgb(80, 80, 80);"></path><path class="link" marker-end="" d="M596,274, 999,847.5" style="stroke-width: 0.83; stroke-opacity: 0.57; stroke: rgb(80, 80, 80);"></path><path class="link" marker-end="" d="M596,381, 999,729.5" style="stroke-width: 0.83; stroke-opacity: 0.57; stroke: rgb(80, 80, 80);"></path><path class="link" marker-end="" d="M596,381, 999,788.5" style="stroke-width: 0.83; stroke-opacity: 0.57; stroke: rgb(80, 80, 80);"></path><path class="link" marker-end="" d="M596,381, 999,847.5" style="stroke-width: 0.83; stroke-opacity: 0.57; stroke: rgb(80, 80, 80);"></path><path class="link" marker-end="" d="M596,488, 999,729.5" style="stroke-width: 0.83; stroke-opacity: 0.57; stroke: rgb(80, 80, 80);"></path><path class="link" marker-end="" d="M596,488, 999,788.5" style="stroke-width: 0.83; stroke-opacity: 0.57; stroke: rgb(80, 80, 80);"></path><path class="link" marker-end="" d="M596,488, 999,847.5" style="stroke-width: 0.83; stroke-opacity: 0.57; stroke: rgb(80, 80, 80);"></path><path class="link" marker-end="" d="M596,595, 999,729.5" style="stroke-width: 0.83; stroke-opacity: 0.57; stroke: rgb(80, 80, 80);"></path><path class="link" marker-end="" d="M596,595, 999,788.5" style="stroke-width: 0.83; stroke-opacity: 0.57; stroke: rgb(80, 80, 80);"></path><path class="link" marker-end="" d="M596,595, 999,847.5" style="stroke-width: 0.83; stroke-opacity: 0.57; stroke: rgb(80, 80, 80);"></path><path class="link" marker-end="" d="M596,702, 999,729.5" style="stroke-width: 0.83; stroke-opacity: 0.57; stroke: rgb(80, 80, 80);"></path><path class="link" marker-end="" d="M596,702, 999,788.5" style="stroke-width: 0.83; stroke-opacity: 0.57; stroke: rgb(80, 80, 80);"></path><path class="link" marker-end="" d="M596,702, 999,847.5" style="stroke-width: 0.83; stroke-opacity: 0.57; stroke: rgb(80, 80, 80);"></path><path class="link" marker-end="" d="M596,809, 999,729.5" style="stroke-width: 0.83; stroke-opacity: 0.57; stroke: rgb(80, 80, 80);"></path><path class="link" marker-end="" d="M596,809, 999,788.5" style="stroke-width: 0.83; stroke-opacity: 0.57; stroke: rgb(80, 80, 80);"></path><path class="link" marker-end="" d="M596,809, 999,847.5" style="stroke-width: 0.83; stroke-opacity: 0.57; stroke: rgb(80, 80, 80);"></path><path class="link" marker-end="" d="M596,916, 999,729.5" style="stroke-width: 0.83; stroke-opacity: 0.57; stroke: rgb(80, 80, 80);"></path><path class="link" marker-end="" d="M596,916, 999,788.5" style="stroke-width: 0.83; stroke-opacity: 0.57; stroke: rgb(80, 80, 80);"></path><path class="link" marker-end="" d="M596,916, 999,847.5" style="stroke-width: 0.83; stroke-opacity: 0.57; stroke: rgb(80, 80, 80);"></path><path class="link" marker-end="" d="M999,729.5, 1402,316.5" style="stroke-width: 0.83; stroke-opacity: 0.57; stroke: rgb(80, 80, 80);"></path><path class="link" marker-end="" d="M999,729.5, 1402,375.5" style="stroke-width: 0.83; stroke-opacity: 0.57; stroke: rgb(80, 80, 80);"></path><path class="link" marker-end="" d="M999,729.5, 1402,434.5" style="stroke-width: 0.83; stroke-opacity: 0.57; stroke: rgb(80, 80, 80);"></path><path class="link" marker-end="" d="M999,729.5, 1402,493.5" style="stroke-width: 0.83; stroke-opacity: 0.57; stroke: rgb(80, 80, 80);"></path><path class="link" marker-end="" d="M999,729.5, 1402,552.5" style="stroke-width: 0.83; stroke-opacity: 0.57; stroke: rgb(80, 80, 80);"></path><path class="link" marker-end="" d="M999,788.5, 1402,316.5" style="stroke-width: 0.83; stroke-opacity: 0.57; stroke: rgb(80, 80, 80);"></path><path class="link" marker-end="" d="M999,788.5, 1402,375.5" style="stroke-width: 0.83; stroke-opacity: 0.57; stroke: rgb(80, 80, 80);"></path><path class="link" marker-end="" d="M999,788.5, 1402,434.5" style="stroke-width: 0.83; stroke-opacity: 0.57; stroke: rgb(80, 80, 80);"></path><path class="link" marker-end="" d="M999,788.5, 1402,493.5" style="stroke-width: 0.83; stroke-opacity: 0.57; stroke: rgb(80, 80, 80);"></path><path class="link" marker-end="" d="M999,788.5, 1402,552.5" style="stroke-width: 0.83; stroke-opacity: 0.57; stroke: rgb(80, 80, 80);"></path><path class="link" marker-end="" d="M999,847.5, 1402,316.5" style="stroke-width: 0.83; stroke-opacity: 0.57; stroke: rgb(80, 80, 80);"></path><path class="link" marker-end="" d="M999,847.5, 1402,375.5" style="stroke-width: 0.83; stroke-opacity: 0.57; stroke: rgb(80, 80, 80);"></path><path class="link" marker-end="" d="M999,847.5, 1402,434.5" style="stroke-width: 0.83; stroke-opacity: 0.57; stroke: rgb(80, 80, 80);"></path><path class="link" marker-end="" d="M999,847.5, 1402,493.5" style="stroke-width: 0.83; stroke-opacity: 0.57; stroke: rgb(80, 80, 80);"></path><path class="link" marker-end="" d="M999,847.5, 1402,552.5" style="stroke-width: 0.83; stroke-opacity: 0.57; stroke: rgb(80, 80, 80);"></path><circle r="19.5" class="node" id="0_0" cx="596" cy="-47" style="fill: rgb(255, 255, 255); stroke: rgb(51, 51, 51); opacity: 1;"></circle><circle r="19.5" class="node" id="0_1" cx="596" cy="60" style="fill: rgb(255, 255, 255); stroke: rgb(51, 51, 51); opacity: 1;"></circle><circle r="19.5" class="node" id="0_2" cx="596" cy="167" style="fill: rgb(255, 255, 255); stroke: rgb(51, 51, 51); opacity: 1;"></circle><circle r="19.5" class="node" id="0_3" cx="596" cy="274" style="fill: rgb(255, 255, 255); stroke: rgb(51, 51, 51); opacity: 1;"></circle><circle r="19.5" class="node" id="0_4" cx="596" cy="381" style="fill: rgb(255, 255, 255); stroke: rgb(51, 51, 51); opacity: 1;"></circle><circle r="19.5" class="node" id="0_5" cx="596" cy="488" style="fill: rgb(255, 255, 255); stroke: rgb(51, 51, 51); opacity: 1;"></circle><circle r="19.5" class="node" id="0_6" cx="596" cy="595" style="fill: rgb(255, 255, 255); stroke: rgb(51, 51, 51);"></circle><circle r="19.5" class="node" id="0_7" cx="596" cy="702" style="fill: rgb(255, 255, 255); stroke: rgb(51, 51, 51);"></circle><circle r="19.5" class="node" id="0_8" cx="596" cy="809" style="fill: rgb(255, 255, 255); stroke: rgb(51, 51, 51);"></circle><circle r="19.5" class="node" id="0_9" cx="596" cy="916" style="fill: rgb(255, 255, 255); stroke: rgb(51, 51, 51);"></circle><circle r="19.5" class="node" id="1_0" cx="999" cy="21.5" style="fill: rgb(255, 255, 255); stroke: rgb(51, 51, 51); opacity: 1;"></circle><circle r="19.5" class="node" id="1_1" cx="999" cy="80.5" style="fill: rgb(255, 255, 255); stroke: rgb(51, 51, 51); opacity: 1;"></circle><circle r="19.5" class="node" id="1_2" cx="999" cy="139.5" style="fill: rgb(255, 255, 255); stroke: rgb(51, 51, 51); opacity: 1;"></circle><circle r="19.5" class="node" id="1_3" cx="999" cy="198.5" style="fill: rgb(255, 255, 255); stroke: rgb(51, 51, 51); opacity: 1;"></circle><circle r="19.5" class="node" id="1_4" cx="999" cy="257.5" style="fill: rgb(255, 255, 255); stroke: rgb(51, 51, 51); opacity: 1;"></circle><circle r="19.5" class="node" id="1_5" cx="999" cy="316.5" style="fill: rgb(255, 255, 255); stroke: rgb(51, 51, 51); opacity: 1;"></circle><circle r="19.5" class="node" id="1_6" cx="999" cy="375.5" style="fill: rgb(255, 255, 255); stroke: rgb(51, 51, 51); opacity: 1;"></circle><circle r="19.5" class="node" id="1_7" cx="999" cy="434.5" style="fill: rgb(255, 255, 255); stroke: rgb(51, 51, 51); opacity: 1;"></circle><circle r="19.5" class="node" id="1_8" cx="999" cy="493.5" style="fill: rgb(255, 255, 255); stroke: rgb(51, 51, 51); opacity: 1;"></circle><circle r="19.5" class="node" id="1_9" cx="999" cy="552.5" style="fill: rgb(255, 255, 255); stroke: rgb(51, 51, 51); opacity: 1;"></circle><circle r="19.5" class="node" id="1_10" cx="999" cy="611.5" style="fill: rgb(255, 255, 255); stroke: rgb(51, 51, 51); opacity: 1;"></circle><circle r="19.5" class="node" id="1_11" cx="999" cy="670.5" style="fill: rgb(255, 255, 255); stroke: rgb(51, 51, 51); opacity: 1;"></circle><circle r="19.5" class="node" id="1_12" cx="999" cy="729.5" style="fill: rgb(255, 255, 255); stroke: rgb(51, 51, 51);"></circle><circle r="19.5" class="node" id="1_13" cx="999" cy="788.5" style="fill: rgb(255, 255, 255); stroke: rgb(51, 51, 51);"></circle><circle r="19.5" class="node" id="1_14" cx="999" cy="847.5" style="fill: rgb(255, 255, 255); stroke: rgb(51, 51, 51);"></circle><circle r="19.5" class="node" id="2_0" cx="1402" cy="316.5" style="fill: rgb(255, 255, 255); stroke: rgb(51, 51, 51); opacity: 1;"></circle><circle r="19.5" class="node" id="2_1" cx="1402" cy="375.5" style="fill: rgb(255, 255, 255); stroke: rgb(51, 51, 51); opacity: 1;"></circle><circle r="19.5" class="node" id="2_2" cx="1402" cy="434.5" style="fill: rgb(255, 255, 255); stroke: rgb(51, 51, 51); opacity: 1;"></circle><circle r="19.5" class="node" id="2_3" cx="1402" cy="493.5" style="fill: rgb(255, 255, 255); stroke: rgb(51, 51, 51); opacity: 1;"></circle><circle r="19.5" class="node" id="2_4" cx="1402" cy="552.5" style="fill: rgb(255, 255, 255); stroke: rgb(51, 51, 51); opacity: 1;"></circle><text class="text" dy=".35em" x="561" y="975" style="font-size: 12px;">Input Layer ∈ ℝ¹⁰</text><text class="text" dy=".35em" x="964" y="975" style="font-size: 12px;">Hidden Layer ∈ ℝ¹⁵</text><text class="text" dy=".35em" x="1367" y="975" style="font-size: 12px;">Output Layer ∈ ℝ⁵</text></g><defs><marker id="arrow" viewBox="0 -5 10 10" markerWidth="7" markerHeight="7" orient="auto" refX="66.6"><path d="M0,-5L10,0L0,5" style="stroke: rgb(80, 80, 80); fill: none;"></path></marker></defs></svg>